<?xml version="1.0" standalone="no"?>
<!DOCTYPE svg PUBLIC "-//W3C//DTD SVG 20010904//EN"
 "http://www.w3.org/TR/2001/REC-SVG-20010904/DTD/svg10.dtd">
<svg version="1.0" xmlns="http://www.w3.org/2000/svg"
 width="512.000000pt" height="512.000000pt" viewBox="0 0 512.000000 512.000000"
 preserveAspectRatio="xMidYMid meet">
<metadata>
Created by potrace 1.14, written by Peter Selinger 2001-2017
</metadata>
<g transform="translate(0.000000,512.000000) scale(0.100000,-0.100000)"
fill="#000000" stroke="none">
<path d="M885 5113 c-16 -2 -56 -8 -87 -13 -32 -6 -70 -13 -85 -15 -47 -6
-180 -53 -245 -86 -86 -43 -144 -86 -216 -158 -38 -39 -112 -144 -112 -160 0
-6 -4 -11 -8 -11 -4 0 -14 -17 -22 -37 -7 -21 -20 -54 -28 -73 -9 -19 -17 -38
-18 -42 -1 -5 -2 -9 -4 -10 -1 -2 -3 -10 -5 -18 -9 -36 -38 -168 -43 -195 -3
-16 -7 -781 -8 -1700 -3 -1702 -3 -1700 31 -1884 18 -95 83 -254 137 -333 48
-69 150 -174 181 -184 9 -3 17 -9 17 -13 0 -4 18 -16 40 -27 22 -10 40 -23 40
-27 0 -5 4 -5 10 -2 5 3 10 1 10 -4 0 -6 4 -11 9 -11 5 0 20 -4 33 -9 13 -5
25 -8 28 -7 3 0 18 -7 33 -17 15 -9 27 -15 27 -13 0 3 15 -1 32 -9 18 -7 35
-13 38 -13 6 0 77 -13 105 -19 72 -16 312 -18 1810 -18 1556 0 1676 1 1762 18
179 34 320 92 428 175 69 53 143 129 151 155 3 9 10 17 15 17 5 0 9 7 9 15 0
8 5 15 10 15 6 0 10 5 10 11 0 6 9 23 20 39 11 15 17 30 13 34 -3 3 -1 6 5 6
7 0 12 8 12 18 0 10 3 22 8 26 4 4 7 11 8 14 0 4 6 19 12 33 12 31 32 103 38
139 2 14 6 35 9 47 3 13 9 49 13 80 9 75 9 3338 0 3418 -35 296 -146 514 -333
658 -30 23 -87 57 -95 57 -6 0 -10 5 -10 11 0 5 -4 7 -10 4 -5 -3 -10 -1 -10
5 0 6 -4 8 -10 5 -6 -3 -10 -2 -10 3 0 6 -11 13 -25 16 -13 3 -37 11 -52 18
-32 13 -31 12 -103 32 -30 8 -75 18 -100 21 -25 4 -70 11 -100 15 -51 8 -3300
11 -3365 3z"/>
</g>
</svg>
